<svg width="120" height="40" viewBox="0 0 4838 1944" fill="none" xmlns="http://www.w3.org/2000/svg" class="h-full w-auto"><path d="M4109.35 374.23C3839.27 374.23 3677.19 563.35 3677.19 831.671C3677.19 1099.99 3839.27 1287.35 4107.59 1287.35C4375.91 1287.35 4537.99 1099.99 4537.99 829.911C4537.99 559.83 4376.07 374.23 4109.35 374.23ZM4109.35 1150.71C3930.47 1150.71 3849.35 1010.55 3849.35 831.671C3849.35 652.79 3930.31 512.63 4109.35 512.63C4288.39 512.63 4365.83 651.031 4365.83 831.671C4365.83 1012.31 4284.87 1150.71 4109.35 1150.71Z" fill="currentColor"></path><path d="M2097.83 375.199C1966.15 375.199 1878.47 442.719 1815.91 525.439H1812.55C1778.79 429.119 1704.55 375.199 1584.71 375.199C1464.87 375.199 1382.95 436.479 1336.39 499.359C1332.07 505.119 1325.51 508.639 1318.31 508.639H1183.27C1170.95 508.639 1160.87 518.719 1160.87 531.039V1239.04C1160.87 1251.36 1170.95 1261.44 1183.27 1261.44H1303.91C1316.23 1261.44 1326.31 1251.36 1326.31 1239.04V733.119C1326.31 603.199 1403.91 517.119 1527.11 517.119C1650.31 517.119 1677.35 594.719 1677.35 709.599V1239.2C1677.35 1251.52 1687.43 1261.6 1699.75 1261.6H1820.39C1832.71 1261.6 1842.79 1251.52 1842.79 1239.2V733.279C1842.79 603.359 1920.39 517.279 2043.59 517.279C2166.79 517.279 2193.83 594.879 2193.83 709.759V1239.36C2193.83 1251.68 2203.91 1261.76 2216.23 1261.76H2336.87C2349.19 1261.76 2359.27 1251.68 2359.27 1239.36V663.839C2359.43 479.839 2271.75 375.199 2097.83 375.199Z" fill="currentColor"></path><path d="M2641.51 400.48H2520.87C2508.5 400.48 2498.47 410.509 2498.47 422.88V1238.88C2498.47 1251.25 2508.5 1261.28 2520.87 1261.28H2641.51C2653.88 1261.28 2663.91 1251.25 2663.91 1238.88V422.88C2663.91 410.509 2653.88 400.48 2641.51 400.48Z" fill="currentColor"></path><path d="M698.88 373.762C441.28 373.762 322.4 428.962 314.72 649.122C314.24 662.082 324.48 672.962 337.44 672.962H459.52C470.88 672.962 480.64 664.322 482.08 653.122V549.282C482.08 527.842 499.52 510.402 520.96 510.402H819.84C841.28 510.402 858.72 527.842 858.72 549.282V646.562C858.72 662.882 858.72 679.522 815.68 702.242C800.8 711.682 782.4 719.362 760.64 725.922C760.16 725.922 759.84 726.242 759.36 726.402H758.4C725.12 736.482 684.48 744.482 637.28 753.282C420.32 794.402 300 843.682 300 1049.6C300 1186.56 384.32 1296.96 558.72 1296.96C672.48 1296.96 758.72 1260.64 817.44 1199.68C817.44 1199.68 818.72 1198.56 819.2 1197.92C819.68 1197.44 820 1196.96 820.48 1196.48C861.28 1152.16 927.52 1149.12 927.52 1149.12H999.2C1011.52 1149.12 1021.6 1139.2 1021.76 1126.88C1021.76 1112.48 1022.08 1096.96 1022.08 1074.88V674.722C1022.08 448.962 878.56 373.762 698.88 373.762ZM857.92 1089.6C857.92 1117.28 836.96 1139.68 811.04 1139.68H528.8C502.88 1139.68 481.92 1117.28 481.92 1089.6V1031.68C481.92 1031.68 481.92 1030.24 481.92 1029.44C483.36 942.882 516 901.282 666.4 871.202C755.36 852.322 830.56 833.602 857.92 808.002V1089.6Z" fill="currentColor"></path><path d="M3557.99 501.759H3477.03C3430.31 501.759 3393.99 477.279 3376.39 462.719C3372.87 459.359 3369.03 455.839 3365.19 452.479C3364.87 452.159 3364.55 451.999 3364.55 451.999C3316.07 409.759 3246.79 375.199 3146.47 375.199C2932.07 375.199 2766.63 520.319 2766.63 797.119C2766.63 1073.92 2932.07 1217.44 3146.47 1217.44C3284.87 1217.44 3364.23 1156.64 3411.43 1087.52H3414.79V1204C3414.79 1366.08 3333.83 1435.2 3176.87 1435.2C3049.83 1435.2 2991.91 1385.92 2970.47 1318.4C2967.27 1308.16 2958.15 1300.64 2947.43 1300.64H2821.67C2808.07 1300.64 2797.51 1312.48 2800.07 1325.76C2826.79 1466.24 2947.75 1570.24 3176.87 1570.24C3423.27 1570.24 3580.23 1453.76 3580.23 1193.92V524.159C3580.23 511.839 3570.15 501.759 3557.83 501.759H3557.99ZM3413.03 814.559C3407.11 989.119 3320.23 1080.64 3177.03 1080.64C2990.47 1080.64 2917.99 919.519 2944.23 721.119C2959.75 602.879 3061.83 512.159 3181.03 513.599C3181.03 513.599 3181.19 513.599 3181.35 513.599H3373.19C3394.63 513.599 3412.07 531.039 3412.07 552.479L3413.03 814.559C3413.35 812.639 3413.03 815.519 3413.03 814.559Z" fill="currentColor"></path></svg>