<svg xmlns="http://www.w3.org/2000/svg" viewBox="0 0 966 189" fill="none" aria-label="Graphite Logo"><path fill-rule="evenodd" clip-rule="evenodd" d="M662.11 153.252V22.178H680.724V72.1495H681.662C689.326 61.3067 697.774 57.6931 708.722 57.6931C731.084 57.6931 745.95 72.4646 745.95 96.9761V153.252H727.332V96.9775C727.364 94.0188 726.806 91.0842 725.692 88.3454C724.578 85.6066 722.93 83.1188 720.85 81.0261C718.762 78.9343 716.288 77.2796 713.558 76.1602C710.834 75.0408 707.914 74.4786 704.97 74.5061C691.05 74.5061 680.726 84.8773 680.726 96.9777V153.252L662.11 153.252Z" fill="white"></path><path fill-rule="evenodd" clip-rule="evenodd" d="M820.817 133.595V76.3939H804.395V59.5792H820.817V39.1986L839.435 28.3811V59.5792H866.961V76.3939H839.435V130.767C839.435 134.538 841.311 136.423 845.061 136.423H866.961L857.125 153.253H841.311C828.013 153.253 820.817 145.695 820.817 133.595Z" fill="white"></path><path fill-rule="evenodd" clip-rule="evenodd" d="M629.3 106.01C629.3 86.5236 617.258 74.1096 602.242 74.1096C587.384 74.1096 575.341 86.5236 575.341 106.01C575.341 125.497 587.384 137.756 602.242 137.756C617.258 137.756 629.3 125.497 629.3 106.01ZM556.729 188.672V59.571H573.464L575.341 73.6379H576.279C579.409 66.8807 587.073 57.2949 605.059 57.2949C629.461 57.2949 647.912 75.9969 647.912 106.01C647.912 136.023 629.457 154.725 605.059 154.725C587.227 154.725 579.095 145.296 576.279 138.382H575.341V188.671L556.729 188.672Z" fill="white"></path><path fill-rule="evenodd" clip-rule="evenodd" d="M757.026 76.4245H773.446V153.252H792.056V59.5781H757.026V76.4245Z" fill="white"></path><path d="M792.059 22.178H771.573V41.8209H792.059V22.178Z" fill="white"></path><path fill-rule="evenodd" clip-rule="evenodd" d="M399.474 153.252V59.5781H415.272L417.148 71.2107H418.086C422.622 61.9387 427.158 59.5781 440.452 59.5781H450.4V76.4245H437.638C423.874 76.4245 418.086 81.7358 418.086 94.3072V153.252L399.474 153.252Z" fill="white"></path><path fill-rule="evenodd" clip-rule="evenodd" d="M893.427 98.4669H948.323C946.289 83.5388 936.275 73.1662 921.259 73.1662C905.467 73.1662 896.237 83.5388 893.427 98.4669ZM946.015 126.378L961.157 135.16C953.157 145.718 939.979 154.725 921.267 154.725C894.361 154.725 874.817 135.082 874.817 106.01C874.817 76.9387 894.361 57.2949 921.267 57.2949C946.447 57.2949 965.999 76.9379 965.999 103.182C965.959 105.441 965.803 107.696 965.529 109.938L965.057 112.609H893.427C895.459 128.482 906.401 138.697 921.259 138.697C932.523 138.697 940.889 133.986 946.015 126.378Z" fill="white"></path><path fill-rule="evenodd" clip-rule="evenodd" d="M516.027 112.967V109.195H493.817C479.585 109.195 473.327 115.638 473.327 124.124C473.327 132.61 478.801 138.11 490.063 138.11C506.955 138.11 516.027 128.837 516.027 112.967ZM533.075 153.252C520.093 153.252 517.591 143.799 516.965 139.244H516.027C510.395 150.558 498.353 154.645 488.185 154.645C467.701 154.645 454.559 142.544 454.559 125.572C454.559 106.87 466.761 94.6108 492.879 94.6108H516.027V92.883C516.027 80.6238 508.673 73.266 496.475 73.0819C492.141 73.0889 487.891 74.2948 484.193 76.5683C480.495 78.8408 477.491 82.093 475.511 85.9676L459.671 76.7931C466.061 65.1408 478.195 57.2146 496.479 57.2146C520.881 57.2146 534.797 71.0428 534.797 92.8868V132.9C534.797 133.834 535.167 134.73 535.825 135.392C536.483 136.052 537.375 136.423 538.303 136.423H545.747V153.252H533.075Z" fill="white"></path><path fill-rule="evenodd" clip-rule="evenodd" d="M378.171 84.4829V153.253H362.371L360.501 132.884H359.557C350.491 147.183 335.787 154.726 318.579 154.726C284.327 154.726 256.175 127.541 256.175 87.3104C256.175 47.0793 284.327 19.8938 318.579 19.8938C346.287 19.8938 364.563 36.5553 374.225 54.8996L358.167 64.233C349.145 48.6895 335.475 38.5959 318.579 38.5959C294.177 38.5959 275.723 57.2979 275.723 87.3104C275.723 117.17 294.177 136.025 318.579 136.025C340.943 136.025 358.621 118.423 358.621 101.297V100.356H324.111L315.017 84.4827L378.171 84.4829Z" fill="white"></path><path d="M111.052 0L23.468 23.5035L0 111.22L64.1158 175.433L151.7 151.93L175.168 64.2131L111.052 0ZM125.364 153.254H49.8032L12.0226 87.7166L49.8032 22.1794H125.364L163.145 87.7166L125.364 153.254Z" fill="white"></path><path d="M131.431 43.8006L71.5321 27.7263L27.6829 71.6419L43.7329 131.632L103.632 147.706L147.481 103.79L131.431 43.8006Z" fill="white"></path></svg>