<svg viewBox="374 415 2103 617" fill="none" xmlns="http://www.w3.org/2000/svg">
<path d="M2361.29 1031.41C2292.22 1031.41 2261.33 996.389 2261.33 938.151L2264.67 570.627V448.447H2385.5V570.627H2477V669.198H2385.5V933.43H2477V1032H2360.51H2361.49V1031.61L2361.29 1031.41Z" fill="black"/>
<path d="M1802.83 1031.41V570.627H1927.78V651.097H1932.11C1951.99 605.254 1992.72 562.167 2066.12 562.167C2139.52 562.167 2213.9 625.716 2213.9 737.469V1031.61H2089.73V767.374C2089.73 705.792 2065.14 669.788 2018.7 669.788C1972.26 669.788 1927.19 716.613 1927.19 799.444V1031.02H1802.24L1802.63 1031.41H1802.83Z" fill="black"/>
<path d="M1627.69 1031.41V570.626H1751.86V1031.41H1627.69Z" fill="black"/>
<path d="M1444.88 1031.41V415.786H1573.18V1031.41H1444.88Z" fill="black"/>
<path d="M1021.41 1031.41V415.786H1397.46V522.816H1154.43V632.208H1352V739.239H1154.43V1031.41H1020.82H1021.41Z" fill="black"/>
<path d="M1751.66 430.936H1627.5V532.654H1751.66V430.936Z" fill="black"/>
<path d="M374 1004.46L679.798 1031.21V833.875L374 847.451V1004.46Z" fill="black"/>
<path d="M374 567.086V676.084L803.573 606.042V764.423L892.518 750.061V415L374 567.086Z" fill="black"/>
<path d="M374 831.711L695.54 817.349V894.67L787.634 891.719V624.536L374 692.217V831.711Z" fill="black"/>
</svg>
